<?xml version="1.0" encoding="UTF-8"?>
<svg fill="#23A2B8" width="500pt" height="500pt" version="1.1" viewBox="0 0 100 100" xmlns="http://www.w3.org/2000/svg">
 <g>
  <path d="m96.52 86.699l-10.699-18.559c5.6211-3.0586 9.2969-6.6797 9.2969-10.379 0-6.1992-11.379-12.441-24.52-15.961l-18.738-32.48c-0.71875-1.2383-2.7617-1.2383-3.4609 0l-18.922 32.781c-12.859 3.6406-24.102 9.8594-24.102 15.66 0 3.3984 3.5781 7 9.1992 10.121l-11.035 19.117c-0.33984 0.62109-0.33984 1.3789 0 2 0.35938 0.62109 1.0195 1 1.7422 1h89.719c1.1211 0 2-0.89844 2-2 0-0.5-0.17969-0.96094-0.48047-1.3008zm-22.961-39.777c10.02 3.3008 17.559 7.8789 17.559 10.84 0 2.0195-2.7617 4.5586-7.2812 6.9805-1.1016 0.60156-2.3008 1.1797-3.6016 1.7383-4.7188 2.0586-10.66 3.8789-17.078 5 3.6797-3.4414 5.957-8.3203 5.957-13.719 0-5.2812-2.1797-10.078-5.6992-13.5 1.543 0.30078 3.0781 0.66016 4.5781 1.0391 1.9297 0.48047 3.7891 1.0391 5.5664 1.6211zm-38.18 10.84c0-8.2188 6.6602-14.879 14.859-14.879 8.2188 0 14.879 6.6602 14.879 14.879 0 8.2031-6.6562 14.859-14.879 14.859-8.1992 0-14.859-6.6602-14.859-14.859zm14.742-43.441l15.141 26.219c-4.7812-0.98047-9.6016-1.5781-14.059-1.6406-0.32031-0.019532-0.64062-0.019532-0.96094-0.019532-0.32031 0-0.64063 0-0.96094 0.019532-4.5 0.078124-9.4609 0.73828-14.398 1.8203zm-40.742 43.441c0-2.8203 7.3984-7.3008 17.18-10.602 1.7812-0.62109 3.6602-1.1797 5.5781-1.6797 1.6016-0.44141 3.2383-0.82031 4.8789-1.1602-3.4805 3.4219-5.6406 8.1797-5.6406 13.441 0 5.3984 2.2812 10.281 5.9414 13.703-6.5586-1.1602-12.5-3.0781-17.199-5.1836-1.3008-0.57812-2.5-1.1797-3.5781-1.7812-4.4805-2.4609-7.1602-4.9609-7.1602-6.7383zm-0.64062 28.238l9.4219-16.301c8.5391 3.9219 20.199 6.7617 31.141 6.8984 0.32031 0.019532 0.62109 0.019532 0.94141 0.019532 0.32031 0 0.64062 0 0.96094-0.019532 10.398-0.13672 22.262-2.7969 31.02-6.6797l9.2773 16.082z"/>
  <path d="m59.875 57.75c0 5.3164-4.3086 9.625-9.625 9.625s-9.625-4.3086-9.625-9.625 4.3086-9.625 9.625-9.625 9.625 4.3086 9.625 9.625"/>
  <path d="m55.207 57.328c-0.55078 0-1-0.44922-1-1 0-1.3984-1.1367-2.5352-2.5352-2.5352-0.55078 0-1-0.44922-1-1s0.44922-1 1-1c2.5 0 4.5352 2.0352 4.5352 4.5352 0 0.55469-0.44922 1-1 1z" fill="#23A2B8"/>
  <path d="m-19.48 86.699l-10.699-18.559c5.6211-3.0586 9.2969-6.6797 9.2969-10.379 0-6.2031-11.379-12.441-24.52-15.961l-18.738-32.48c-0.71875-1.2383-2.7617-1.2383-3.4609 0l-18.922 32.781c-12.859 3.6406-24.102 9.8633-24.102 15.66 0 3.3984 3.5781 7 9.1992 10.121l-11.039 19.121c-0.33984 0.62109-0.33984 1.3789 0 2 0.35938 0.62109 1.0195 1 1.7383 1h89.719c1.1211 0 2-0.89844 2-2 0.007812-0.50391-0.17188-0.96484-0.47266-1.3047zm-76.398-20.418c-1.3008-0.57812-2.5-1.1797-3.5781-1.7812-4.4805-2.4609-7.1602-4.9609-7.1602-6.7383 0-2.8203 7.3984-7.2969 17.18-10.602 1.7812-0.62109 3.6602-1.1797 5.5781-1.6797 1.6016-0.44141 3.2383-0.82031 4.8789-1.1602-3.4805 3.4219-5.6406 8.1797-5.6406 13.441 0 5.3984 2.2812 10.281 5.9414 13.703-6.5586-1.1641-12.5-3.0859-17.199-5.1836zm30.117 6.3398c-8.1992 0-14.859-6.6562-14.859-14.859 0-8.2188 6.6602-14.879 14.859-14.879 8.2188 0 14.879 6.6602 14.879 14.879 0.003906 8.1992-6.6562 14.859-14.879 14.859zm30-6.1406c-4.7188 2.0586-10.66 3.8789-17.078 5 3.6797-3.4414 5.957-8.3203 5.957-13.719 0-5.2812-2.1797-10.078-5.6992-13.5 1.543 0.29688 3.0781 0.66016 4.5781 1.043 1.9219 0.48047 3.7812 1.0391 5.5586 1.6211 10.02 3.2969 17.559 7.8789 17.559 10.84 0 2.0195-2.7617 4.5586-7.2812 6.9805-1.0938 0.59375-2.293 1.1758-3.5938 1.7344z"/>
  <path d="m-56.125 57.75c0 5.3164-4.3086 9.625-9.625 9.625s-9.625-4.3086-9.625-9.625 4.3086-9.625 9.625-9.625 9.625 4.3086 9.625 9.625"/>
  <path d="m-60.793 57.328c-0.55078 0-1-0.44922-1-1 0-1.3984-1.1367-2.5352-2.5352-2.5352-0.55078 0-1-0.44922-1-1s0.44922-1 1-1c2.5 0 4.5352 2.0352 4.5352 4.5352 0 0.55469-0.44922 1-1 1z" fill="#23A2B8"/>
 </g>
</svg>
