<?xml version="1.0" encoding="UTF-8"?>
<svg fill="#FFFFFF" width="100pt" height="100pt" version="1.1" viewBox="0 0 100 100" xmlns="http://www.w3.org/2000/svg">
 <path d="m51.121 14.875 4.6055 31.879 31.641-5.5508 8.1445-1.418-7.4375 3.6602-28.926 14.051 15.113 28.57 3.8945 7.3203-5.7852-6.0195-22.434-23.141-22.434 23.141-5.668 6.0195 3.8945-7.3203 14.992-28.57-28.926-14.051-7.4375-3.6602 8.1445 1.418 31.758 5.5508 4.4883-31.879 1.1797-8.2656 1.1797 8.2656zm2.3594 33.41-3.543-24.91-3.543 24.91-0.11719 1.1797-1.1797-0.23438-24.793-4.3672 22.551 11.098 1.1797 0.58984-0.58984 1.0625-11.805 22.195 17.473-18.062 0.82812-0.82812 0.82812 0.82812 17.59 18.062-11.805-22.195-0.58984-1.0625 1.0625-0.58984 22.668-11.098-24.793 4.3672-1.1797 0.23438-0.23438-1.1797z"/>
</svg>
